PathFileType	3	(X/Y/Z)	D:\Jess\PFP\Labelled\PA24\20251014\SRRun01.trc
DataRate	CameraRate	NumFrames	NumMarkers	Units	OrigDataRate	OrigDataStartFrame	OrigNumFrames
250.0	250.0	6	33	mm	250.0	35000	2501
Frame#	Time	C7			T10			CLAV			LSHO			RSHO			LASIS			RASIS			LPSIS			RPSIS			LILCR			RILCR			LGTR			LTHI			LLTHI			LLEP			LPSH			LLSH			LDSH			LLMAL			LTOE			L5TH			LHEE			RGTR			RTHI			RLTHI			RLEP			RPSH			RLSH			RDSH			RLMAL			RTOE			R5TH			RHEE			
		X1	Y1	Z1	X2	Y2	Z2	X3	Y3	Z3	X4	Y4	Z4	X5	Y5	Z5	X6	Y6	Z6	X7	Y7	Z7	X8	Y8	Z8	X9	Y9	Z9	X10	Y10	Z10	X11	Y11	Z11	X12	Y12	Z12	X13	Y13	Z13	X14	Y14	Z14	X15	Y15	Z15	X16	Y16	Z16	X17	Y17	Z17	X18	Y18	Z18	X19	Y19	Z19	X20	Y20	Z20	X21	Y21	Z21	X22	Y22	Z22	X23	Y23	Z23	X24	Y24	Z24	X25	Y25	Z25	X26	Y26	Z26	X27	Y27	Z27	X28	Y28	Z28	X29	Y29	Z29	X30	Y30	Z30	X31	Y31	Z31	X32	Y32	Z32	X33	Y33	Z33	

1	139.996	897.6447589366521	1430.892716698062	-1029.546205858357	888.4881548919258	1204.989659296694	-949.6028681917185	888.7109934330288	1331.172450214948	-1141.389254798	723.0802585422923	1400.413717798065	-1074.837187241185	1041.582571899171	1393.24988103052	-1101.656210748311	762.1677537090989	979.2346450652412	-1067.433860288076	1029.784789453138	990.5699469648029	-1056.017037794721	848.1392869296534	1009.546346144337	-892.5176349812882	897.2663333522879	1012.676493085027	-887.8713972326917	740.5503008890917	1044.217196164784	-1027.005177584528	1037.859409580695	1059.73625074187	-1012.832860362658	716.9434805122714	918.5710155526493	-1024.472092150256	794.5774498018787	797.7784296043649	-1173.874776075487	735.9681411419452	664.1730327264229	-1129.782722221966	757.4401281690449	515.21716630257	-1197.591809187965	808.3937475292262	425.3965650406066	-1188.209736075377	750.7086120372784	412.4040240011023	-1043.000358488518	797.2842747511795	306.6336732588694	-992.1565195859589	765.3599616469372	278.274803478082	-871.1274316672403	759.0311729567477	134.6248426143374	-912.6989123891291	724.9316238136483	155.2820647756353	-866.1364109388691	819.1284944504146	315.4856302604607	-811.6845145943213	1072.519383355942	923.8204175239709	-988.3814021480546	1000.975829078842	747.7813277096479	-1103.619544500027	1035.985414658966	647.0797739192271	-1004.943876148646	993.9768866533012	460.7671035044207	-995.3350107213249	922.5038794534263	383.7979587124117	-1007.485552792556	975.3391007740549	297.301558446388	-899.9771755356176	904.548032935424	192.6309173571294	-885.6374055964062	937.9109290489865	127.5444045578562	-793.4637663565841	950.2913220850922	59.88945492570584	-916.7487607142233	981.9158483143071	47.36832717107772	-863.8616538182827	884.5162752666331	99.8058973893279	-712.1234036946742	
2	140	897.5030028427933	1433.625116067609	-1030.04891956206	889.6442713334203	1207.567604221054	-950.3135823436033	887.008973435346	1334.219490503312	-1141.757600666336	722.6476392882759	1403.367930992428	-1072.466568918854	1040.270485963479	1396.248031841612	-1103.802695167825	762.5557387860587	982.877912734406	-1067.554762811708	1030.083193928243	992.2310462374047	-1057.021555660239	848.6613220699951	1012.637815880897	-893.0181011698588	897.8889458039524	1015.537573218417	-888.6763752825229	740.7431059768536	1047.77236326855	-1026.474609598467	1037.722636659157	1061.825913176418	-1014.981511975786	716.6570167155324	922.6196492002797	-1025.088748372568	794.8206920455792	802.5864539052283	-1174.149502083761	735.9741251655322	668.113740162528	-1131.493571650878	757.9715551710545	519.7780763863834	-1200.093223191082	808.5603934775201	429.3484579069761	-1193.461832500285	750.9176896845197	410.9030119567515	-1049.190672873802	797.245198170961	303.6184710541343	-1002.758514604911	765.4943666464252	270.567744787726	-883.2455845255512	758.4481052386445	130.03351180346	-931.2344450737952	724.5676443330841	148.3413832900284	-883.8848048600831	819.4964587363273	304.5638995656258	-822.4781156343595	1072.187917696881	925.5214834777124	-988.6300296698648	999.6809012054802	748.2890592706912	-1100.860930486887	1035.722373275809	649.1759676336146	-1000.789607833736	994.0614109651577	463.422403483545	-987.0720940631827	922.8538209485957	386.070506172449	-998.6067672848408	975.7821462590151	300.3944196982647	-890.6372307567303	905.2482229666492	195.1873730972309	-876.2548022229397	938.3742513791618	130.2626274806379	-783.8740799514029	950.4999983898927	59.85041288966433	-905.8387723699337	982.011524573247	47.88982500294384	-852.8392041477304	885.0608018239442	104.0396375234772	-702.519436573546	
3	140.004	897.3607898827888	1436.342609975581	-1030.551442709619	890.7941106230796	1210.131966401247	-951.0194522860955	885.3208402108099	1337.243541346185	-1142.127242706735	722.2192911746452	1406.29757513122	-1070.121854892332	1038.969698169979	1399.228104884098	-1105.934440986385	762.9358484832196	986.4965002437401	-1067.675013602001	1030.373065461001	993.8778158533554	-1058.019906805846	849.1696907514128	1015.706745044287	-893.5127874556551	898.4979811814278	1018.37738643721	-889.4731106398262	740.9432633832746	1051.307108474142	-1025.954485097803	1037.586813786153	1063.898275976896	-1017.107986082873	716.3652576243638	926.6376566992913	-1025.702133078037	795.0740951380194	807.3555431806768	-1174.4012914671	735.987435751044	672.0286241696965	-1133.193191293436	758.5076522230694	524.3079186486556	-1202.552173592022	808.7232765394656	433.2698790278743	-1198.658541853021	751.1261358801931	409.4041480093438	-1055.315289384464	797.2098624576387	300.6140015123024	-1013.263273269159	765.6308867142427	262.9068548645302	-895.248235570676	757.8577910029376	125.464795495895	-949.6066173565798	724.1967693934058	141.441828271634	-901.4697330683938	819.8690831527491	293.7105462134712	-833.1710445866967	1071.855465689297	927.2067640415894	-988.8789062162035	998.3977628218289	748.792220089633	-1098.138513950032	1035.463425954216	651.2516433669592	-996.6769569193008	994.1573333329662	466.0512395023247	-978.890798823772	923.2078406856747	388.3291925124983	-989.8040298979518	976.2296370695996	303.4590491579319	-881.3864549823545	905.9459475674049	197.7281700325542	-866.9579048907274	938.8333859695211	132.9626808796098	-774.3722277528467	950.7102459486498	59.81356875435579	-895.039316227188	982.1106534404488	48.39887128736905	-841.9255218721444	885.5939247014982	108.2337903931671	-692.9900554961773	
4	140.008	897.2133466914014	1439.046159711051	-1031.060649462997	891.934498265587	1212.68665172324	-951.7252204984472	883.6490032622489	1340.241596413484	-1142.501030100207	721.7972366881153	1409.195451858501	-1067.826690852627	1037.675126182133	1402.190434379373	-1108.04748537763	763.3071639713896	990.0842414234387	-1067.803248174299	1030.6439440258	995.5088007788237	-1059.021062554149	849.6546523650118	1018.755344645449	-894.0128650972158	899.0827364899843	1021.197032006166	-890.2721584936868	741.155982113797	1054.820063600365	-1025.461756307329	1037.44669297909	1065.954964823846	-1019.206395259904	716.0676123983445	930.6258206284868	-1026.319525276202	795.3430830925055	812.0751686481073	-1174.629570404546	736.0119563013648	675.9100883993763	-1134.857179379378	759.0431237380545	528.7681991623327	-1204.910907459728	808.8737945112642	437.1373929530448	-1203.752615589866	751.331098657892	407.8847075127933	-1061.366146080316	797.1826656627114	297.627261397458	-1023.676131977437	765.7771603352318	255.3079785647572	-907.1758948931025	757.2723166496977	120.9799469346657	-967.8268522151608	723.8303866850508	134.6395128930378	-918.9217216550451	820.2533837923063	282.9373349657856	-843.8300271082383	1071.523687734382	928.880375789911	-989.1397512082465	997.1506780494619	749.2964928870907	-1095.470370299999	1035.217104625502	653.3194657398433	-992.6173686771004	994.2772680005166	468.6734009550995	-970.8213342135913	923.5791182937354	390.59822424783	-981.1092151224462	976.6948985983704	306.5136858767131	-872.2623542420707	906.6601522003366	200.2723417028375	-857.7901622864875	939.3044758547212	135.6609806957058	-765.0040661654161	950.9311913137207	59.77908772232359	-884.3724732479618	982.2188704004603	48.90243742411756	-831.1413954928844	886.1228538549111	112.4158664897404	-683.5875863343456	
5	140.012	897.0559652680275	1441.737745465701	-1031.583424366801	893.062617597771	1215.236555653916	-952.4359361800191	881.9949286667926	1343.212333946072	-1142.88167560211	721.3830799876223	1412.056042607752	-1065.603142747794	1036.380840812986	1405.136514353459	-1110.138789466155	763.6691745486119	993.6365450813087	-1067.948192577705	1030.885845875979	997.1238939827432	-1060.034452864192	850.1076629105172	1021.787284639913	-894.5299812605457	899.6336202067939	1023.999043424979	-891.0847633879613	741.3854734688867	1058.310930659553	-1025.012514620096	1037.296888368931	1067.999218650398	-1021.271825970032	715.7641031464614	934.5871274474883	-1026.948009214468	795.6316046964678	816.7381914236207	-1174.835537518206	736.052039253928	679.7523630392099	-1136.460917472124	759.572552084843	533.1219474534832	-1207.114758401125	809.0037537743932	440.9294174361003	-1208.700704246505	751.5295960409417	406.3215929233455	-1067.340642906461	797.1678487602986	294.6646793037998	-1034.009919126546	765.9405668288922	247.7839463617274	-919.0783504874771	756.7049074043522	116.6391604442909	-985.9190640277795	723.4807338671015	127.9880486607422	-936.284085989001	820.6555042765697	272.2514929197164	-854.5298357179109	1071.194381100309	930.5477772238766	-989.4242877934603	995.9629771294265	749.8079633729002	-1092.872194962565	1034.992048319537	655.3935007521657	-988.6195670257586	994.4329069928036	471.3109636583675	-962.8872508870433	923.9807435919041	392.9029666468508	-972.5486855372651	977.1909438500772	309.5789566822169	-863.2956719105177	907.4101219886811	202.840081027434	-848.7891624306712	939.8041968851855	138.3751115623234	-755.8094628944485	951.1717633307649	59.74693120506146	-873.8526961648987	982.3416391990222	49.40857043717628	-820.5001634106085	886.6560739339096	116.6164801991519	-674.3592977210205	
6	140.016	896.884235858569	1444.419620296919	-1032.126220181485	894.1758259147313	1217.786732901231	-953.1565978147477	880.3593978535109	1346.155551281219	-1143.27150657466	720.9779928161238	1414.875152403005	-1063.471179491535	1035.080542769276	1408.068243171541	-1112.205883317971	764.0217658526966	997.1497512888494	-1068.118289773799	1031.08965773136	998.7240597900433	-1061.069370332909	850.5217844083425	1024.806895411867	-895.0757285860151	900.1425604361749	1026.786699677943	-891.922291645809	741.6345683774598	1061.779600409297	-1024.621345037077	1037.132107316222	1070.035378221645	-1023.30018465905	715.4555484592595	938.5258042458485	-1027.594002616093	795.9417000331711	821.3401369215787	-1175.022347402091	736.1122574563517	683.5508346894436	-1137.980143655996	760.0904066744265	537.3341507616606	-1209.114222017592	809.1057006733757	444.6262721461536	-1213.464294561743	751.7185540075399	404.692689585856	-1073.240885346826	797.1692824652589	291.7327063469308	-1044.282647917229	766.1278418392452	240.3458697979197	-931.0107366009224	756.1697240415791	112.5004031093218	-1003.915423462998	723.1606541583087	121.5380771015726	-953.6082158323944	821.0802384662488	261.6578995138661	-865.3485556415288	1070.869536274021	932.215275485556	-989.7437001790605	994.8563464752207	750.3327741289548	-1090.35703168068	1034.796703007919	657.4882958234915	-984.6899221777555	994.6343315801624	473.9869577201633	-955.1058122990582	924.425037650209	395.2683825190219	-964.1438843414714	977.7297264756731	312.6765216915815	-854.5106954594111	908.2145501390886	205.4513594432391	-839.9867481168501	940.3490222886745	141.1225630459309	-746.8223138119859	951.4402509265879	59.71690227661465	-863.4878610799112	982.4839603482718	49.92618272585016	-810.00889508109	887.2030331925033	120.8674355607481	-665.3473617660674	
